:FULLY-SPECIFIED
:FORCE-ALL-JOINTS-BE-3DOF
:DEGREES
238
root 6.03847 15.7387 -25.7039 8.66913 28.1968 -2.12542
lfemur -26.4235 18.0423 -7.36229
ltibia 37.8297 0 0
lfoot -20.439 -5.02883 0
ltoes 41.7048 0 0
rfemur -18.653 -4.19556 0.997345
rtibia 46.8604 0 0
rfoot -22.9134 -16.9082 0
rtoes 52.4783 0 0
lowerback 0.0586281 -3.00265 0.641334
upperback -0.642787 -3.96646 0.676417
thorax -0.701089 -1.97736 0.357834
lowerneck -10.482 -3.18569 1.3214
upperneck 2.48046 -4.49122 0.864823
head 2.68409 -2.18267 -0.181453
lclavicle -9.01584e-15 5.40181e-14 0
lhumerus -55.6271 -36.7532 119.887
lradius 60.3168 0 0
lwrist 21.7893 0 0
lhand 10.4897 16.4317 0
lfingers 7.12502 0 0
lthumb 35.5598 42.5929 0
rclavicle -9.01584e-15 5.40181e-14 0
rhumerus -32.1358 -7.21097 -51.7486
rradius 67.8976 0 0
rwrist 19.9836 0 0
rhand -21.7068 -19.8329 0
rfingers 7.12502 0 0
rthumb 4.69047 -769.673 0
239
root 6.1081 15.7674 -25.7041 8.69498 29.547 -2.28349
lfemur -27.5175 18.6472 -8.07552
ltibia 38.5937 0 0
lfoot -20.2333 -4.74558 0
ltoes 41.7125 0 0
rfemur -17.9971 -3.42815 1.15098
rtibia 46.7173 0 0
rfoot -22.6573 -18.5551 0
rtoes 52.1191 0 0
lowerback 0.0743075 -2.99092 0.677774
upperback -0.686977 -3.94919 0.906601
thorax -0.740795 -1.96827 0.575378
lowerneck -10.4313 -3.46879 1.1219
upperneck 2.45923 -4.83935 0.85817
head 2.66718 -2.3588 -0.167774
lclavicle -1.02021e-14 5.48902e-14 0
lhumerus -55.4478 -36.4557 120.004
lradius 60.4805 0 0
lwrist 21.4508 0 0
lhand 10.0413 16.1114 0
lfingers 7.12502 0 0
lthumb 35.1363 42.3871 0
rclavicle -1.02021e-14 5.48902e-14 0
rhumerus -32.9621 -7.71311 -52.8268
rradius 66.5415 0 0
rwrist 21.0578 0 0
rhand -21.2829 -19.084 0
rfingers 7.12502 0 0
rthumb 5.09982 -768.919 0
240
root 6.17773 15.796 -25.7044 8.72083 30.8972 -2.44156
lfemur -28.6114 19.2521 -8.78874
ltibia 39.3577 0 0
lfoot -20.0277 -4.46234 0
ltoes 41.7203 0 0
rfemur -17.3412 -2.66074 1.30461
rtibia 46.5741 0 0
rfoot -22.4011 -20.202 0
rtoes 51.7598 0 0
lowerback 0.0899868 -2.97918 0.714215
upperback -0.731167 -3.93192 1.13679
thorax -0.7805 -1.95918 0.792922
lowerneck -10.3806 -3.7519 0.922393
upperneck 2.438 -5.18748 0.851517
head 2.65028 -2.53492 -0.154096
lclavicle -1.13884e-14 5.57623e-14 0
lhumerus -55.2684 -36.1583 120.12
lradius 60.6441 0 0
lwrist 21.1123 0 0
lhand 9.59287 15.7912 0
lfingers 7.12502 0 0
lthumb 34.7128 42.1813 0
rclavicle -1.13884e-14 5.57623e-14 0
rhumerus -33.7884 -8.21525 -53.905
rradius 65.1854 0 0
rwrist 22.132 0 0
rhand -20.859 -18.3352 0
rfingers 7.12502 0 0
rthumb 5.50917 -768.164 0
241
root 6.24736 15.8247 -25.7046 8.74667 32.2474 -2.59963
lfemur -29.7054 19.8569 -9.50197
ltibia 40.1217 0 0
lfoot -19.822 -4.17909 0
ltoes 41.728 0 0
rfemur -16.6853 -1.89334 1.45824
rtibia 46.431 0 0
rfoot -22.145 -21.8489 0
rtoes 51.4006 0 0
lowerback 0.105666 -2.96745 0.750655
upperback -0.775358 -3.91465 1.36697
thorax -0.820206 -1.95009 1.01047
lowerneck -10.33 -4.035 0.72289
upperneck 2.41677 -5.53561 0.844864
head 2.63337 -2.71105 -0.140417
lclavicle -1.25747e-14 5.66344e-14 0
lhumerus -55.0891 -35.8608 120.237
lradius 60.8078 0 0
lwrist 20.7738 0 0
lhand 9.14447 15.4709 0
lfingers 7.12502 0 0
lthumb 34.2893 41.9755 0
rclavicle -1.25747e-14 5.66344e-14 0
rhumerus -34.6147 -8.71739 -54.9832
rradius 63.8293 0 0
rwrist 23.2062 0 0
rhand -20.435 -17.5863 0
rfingers 7.12502 0 0
rthumb 5.91852 -767.41 0
242
root 6.317 15.8533 -25.7049 8.77252 33.5976 -2.7577
lfemur -30.7994 20.4617 -10.2152
ltibia 40.8857 0 0
lfoot -19.6164 -3.89584 0
ltoes 41.7358 0 0
rfemur -16.0294 -1.12593 1.61188
rtibia 46.2879 0 0
rfoot -21.8888 -23.4958 0
rtoes 51.0414 0 0
lowerback 0.121346 -2.95571 0.787096
upperback -0.819548 -3.89738 1.59715
thorax -0.859911 -1.941 1.22801
lowerneck -10.2793 -4.31811 0.523386
upperneck 2.39553 -5.88375 0.838211
head 2.61646 -2.88717 -0.126738
lclavicle -1.3761e-14 5.75065e-14 0
lhumerus -54.9098 -35.5634 120.354
lradius 60.9714 0 0
lwrist 20.4353 0 0
lhand 8.69606 15.1507 0
lfingers 7.12502 0 0
lthumb 33.8658 41.7697 0
rclavicle -1.3761e-14 5.75065e-14 0
rhumerus -35.441 -9.21953 -56.0614
rradius 62.4732 0 0
rwrist 24.2804 0 0
rhand -20.0111 -16.8375 0
rfingers 7.12502 0 0
rthumb 6.32786 -766.656 0
243
root 6.38663 15.882 -25.7051 8.79837 34.9478 -2.91577
lfemur -31.8934 21.0666 -10.9284
ltibia 41.6497 0 0
lfoot -19.4107 -3.61259 0
ltoes 41.7435 0 0
rfemur -15.3735 -0.358523 1.76551
rtibia 46.1447 0 0
rfoot -21.6327 -25.1427 0
rtoes 50.6822 0 0
lowerback 0.137025 -2.94398 0.823536
upperback -0.863738 -3.88011 1.82734
thorax -0.899617 -1.93191 1.44555
lowerneck -10.2286 -4.60121 0.323883
upperneck 2.3743 -6.23188 0.831558
head 2.59955 -3.0633 -0.113059
lclavicle -1.49473e-14 5.83786e-14 0
lhumerus -54.7305 -35.2659 120.47
lradius 61.1351 0 0
lwrist 20.0968 0 0
lhand 8.24765 14.8304 0
lfingers 7.12502 0 0
lthumb 33.4423 41.5639 0
rclavicle -1.49473e-14 5.83786e-14 0
rhumerus -36.2672 -9.72167 -57.1396
rradius 61.1171 0 0
rwrist 25.3546 0 0
rhand -19.5872 -16.0886 0
rfingers 7.12502 0 0
rthumb 6.73721 -765.901 0
244
root 6.45626 15.9107 -25.7053 8.82421 36.298 -3.07384
lfemur -32.9873 21.6715 -11.6417
ltibia 42.4136 0 0
lfoot -19.2051 -3.32934 0
ltoes 41.7513 0 0
rfemur -14.7176 0.408885 1.91914
rtibia 46.0016 0 0
rfoot -21.3765 -26.7897 0
rtoes 50.3229 0 0
lowerback 0.152704 -2.93225 0.859977
upperback -0.907929 -3.86284 2.05752
thorax -0.939322 -1.92282 1.6631
lowerneck -10.1779 -4.88432 0.12438
upperneck 2.35307 -6.58001 0.824905
head 2.58264 -3.23942 -0.0993805
lclavicle -1.61336e-14 5.92507e-14 0
lhumerus -54.5512 -34.9684 120.587
lradius 61.2987 0 0
lwrist 19.7583 0 0
lhand 7.79925 14.5102 0
lfingers 7.12502 0 0
lthumb 33.0188 41.3581 0
rclavicle -1.61336e-14 5.92507e-14 0
rhumerus -37.0935 -10.2238 -58.2178
rradius 59.761 0 0
rwrist 26.4288 0 0
rhand -19.1632 -15.3398 0
rfingers 7.12502 0 0
rthumb 7.14656 -765.147 0
245
root 6.52589 15.9393 -25.7056 8.85006 37.6482 -3.23191
lfemur -34.0813 22.2763 -12.3549
ltibia 43.1776 0 0
lfoot -18.9994 -3.04609 0
ltoes 41.759 0 0
rfemur -14.0617 1.17629 2.07278
rtibia 45.8585 0 0
rfoot -21.1204 -28.4366 0
rtoes 49.9637 0 0
lowerback 0.168384 -2.92051 0.896418
upperback -0.952119 -3.84557 2.2877
thorax -0.979028 -1.91373 1.88064
lowerneck -10.1272 -5.16742 -0.0751227
upperneck 2.33184 -6.92814 0.818252
head 2.56573 -3.41555 -0.0857017
lclavicle -1.73199e-14 6.01228e-14 0
lhumerus -54.3719 -34.671 120.704
lradius 61.4624 0 0
lwrist 19.4198 0 0
lhand 7.35084 14.1899 0
lfingers 7.12502 0 0
lthumb 32.5953 41.1523 0
rclavicle -1.73199e-14 6.01228e-14 0
rhumerus -37.9198 -10.7259 -59.296
rradius 58.4049 0 0
rwrist 27.5029 0 0
rhand -18.7393 -14.5909 0
rfingers 7.12502 0 0
rthumb 7.55591 -764.393 0
